<svg width="300" height="82" viewBox="0 0 300 82" fill="none" xmlns="http://www.w3.org/2000/svg">
<mask id="mask0_8_387" style="mask-type:alpha" maskUnits="userSpaceOnUse" x="0" y="0" width="300" height="82">
<rect width="300" height="81.25" fill="#D9D9D9"/>
</mask>
<g mask="url(#mask0_8_387)">
<path d="M162.383 22.9234C164.77 22.7978 167.756 17.6713 167.843 15.1128C167.93 12.8536 164.857 11.6082 163.204 11.6951C160.576 11.8206 159.464 15.5569 159.339 18.2602C159.261 21.5524 161.04 22.9813 162.383 22.9234Z" fill="#A505F0"/>
<path d="M243.43 34.7222C235.911 36.2186 234.219 47.6786 226.517 48.0552C222.999 48.2289 221.356 44.8305 221.453 41.4804L220.061 39.646L221.491 40.3894C228.121 43.4982 234.48 33.7567 234.741 26.3034C234.848 23.407 233.842 20.192 230.875 19.3038C227.406 18.2514 223.279 20.2692 220.786 22.9436C216.495 27.8149 214.041 34.0293 213.847 40.5149C213.847 40.8625 213.847 41.2004 213.847 41.5383C212.358 44.2995 210.686 46.6649 209.304 46.7325C207.372 46.829 208.821 39.5302 210.996 33.4478C211.154 33.0568 211.211 32.632 211.16 32.2132C211.109 31.7944 210.953 31.3953 210.706 31.0534C209.979 30.1743 209.046 29.4878 207.99 29.0549L208.241 28.7267C210.387 24.9421 205.545 18.9369 198.161 21.003C191.019 22.9918 186.409 33.8339 185.655 41.9438C182.978 46.3366 179.412 50.3819 175.711 50.5654C172.174 50.7391 171.333 47.2635 171.449 43.894C171.681 37.3868 175.604 29.3059 178.629 27.4812C178.695 27.4346 178.772 27.4051 178.852 27.3955C178.932 27.3858 179.013 27.3964 179.088 27.4261C179.163 27.4559 179.229 27.5039 179.281 27.5658C179.332 27.6277 179.367 27.7015 179.383 27.7805C179.516 28.4153 179.578 29.063 179.567 29.7114C179.378 32.4522 178.401 35.0804 176.754 37.2806C176.619 37.4202 176.524 37.5933 176.478 37.7822C176.432 37.971 176.437 38.1686 176.493 38.3546C176.55 38.5407 176.654 38.7083 176.797 38.8403C176.94 38.9723 177.115 39.0638 177.305 39.1054C177.549 39.1386 177.796 39.1386 178.04 39.1054C178.879 38.9711 179.682 38.6672 180.4 38.2124C181.118 37.7576 181.736 37.1613 182.215 36.46C183.224 35.396 184.13 34.2387 184.921 33.0036L187.463 28.7363C187.675 28.3115 187.859 27.964 188.004 27.684C188.146 27.4165 188.269 27.139 188.371 26.8537C188.463 26.6272 188.506 26.3836 188.497 26.1392C188.485 25.9364 188.429 25.7386 188.333 25.56C188.144 25.2573 187.895 24.9972 187.6 24.7961C187.306 24.5949 186.973 24.4572 186.622 24.3918C186.27 24.2765 185.898 24.2367 185.53 24.275C185.162 24.3132 184.806 24.4287 184.486 24.6138C184.352 24.7096 184.234 24.827 184.138 24.9614C183.738 24.3076 183.204 23.7452 182.572 23.3104C179.364 21.1575 175.063 21.8622 171.855 24.3628C168.395 27.0564 166.375 31.652 165.157 35.6297C164.407 37.9917 163.975 40.443 163.872 42.9189C163.872 43.3534 163.872 43.7782 163.872 44.203C162.354 47.1573 160.653 49.7157 159.31 49.7833C158.585 49.7833 158.208 49.0399 158.276 47.1187C158.431 42.8031 160.731 33.9112 162.065 30.1266C162.241 29.691 162.238 29.2035 162.057 28.7698C161.877 28.3361 161.532 27.9911 161.098 27.8095C159.586 27.2167 157.992 26.8585 156.372 26.7475C153.898 26.873 152.071 36.9427 151.443 43.4016C149.327 47.4855 146.495 51.6853 143.789 51.8204C141.499 51.9363 140.735 49.011 140.822 44.6857C139.624 45.4131 138.377 46.0582 137.092 46.6166C138.422 45.6766 139.681 44.6408 140.861 43.5175C147.577 37.4351 154.314 19.381 154.613 12.9511C154.742 11.4137 154.624 9.86565 154.265 8.36513C153.902 7.24668 153.12 6.31219 152.082 5.75776C151.044 5.20333 149.831 5.07207 148.699 5.39152C143.055 6.7142 140.706 13.5014 139.034 18.2901C136.922 24.3888 135.458 30.6925 134.666 37.0972C134.232 40.0692 134.067 43.0743 134.173 46.076C131.909 47.7369 129.436 49.0937 126.818 50.1116C127.308 49.173 127.74 48.2058 128.113 47.2152C129.768 42.9076 130.531 38.3094 130.355 33.6988C129.834 27.906 126.306 25.502 123.175 25.6565C119.473 25.8303 116.41 31.9803 113.887 38.8157C113.81 38.6612 113.733 38.584 113.82 38.4199C115.308 32.6271 116.4 28.7653 117.163 27.7998C116.632 26.7861 112.331 25.6372 110.012 25.753C109.316 25.753 106.88 34.8284 104.58 45.3229C102.705 49.3875 100.309 53.7224 98.5207 53.8093C97.2353 53.8672 95.3314 50.8453 93.6304 46.858L92.664 44.4926C100.115 36.3731 105.421 27.906 105.672 26.7089C105.924 25.5117 104.252 23.4553 103.623 23.3587C99.7225 28.9983 95.5019 34.4105 90.9824 39.5688C90.0748 36.8358 89.5575 33.9886 89.4457 31.1113C87.4548 30.7348 83.0768 31.9899 81.8881 33.6409C81.4629 34.6063 82.584 40.2832 85.0097 45.9311C79.7619 51.0964 74.3788 55.1416 70.3681 55.3347C66.8309 55.5085 65.1879 52.0715 65.3039 48.7117V47.669C71.9627 50.7778 78.3316 41.0363 78.5925 33.5926C78.6988 30.6962 77.6937 27.4812 74.7268 26.5833C71.2572 25.531 67.1305 27.5488 64.6371 30.2328C62.0824 33.0688 60.1822 36.4305 59.0703 40.0805C58.3811 39.0247 57.9502 37.8218 57.8126 36.5689C57.6749 35.3161 57.8343 34.0484 58.2778 32.8685C60.1237 27.626 50.7009 27.5392 51.7543 35.3401C52.6338 41.4225 58.2005 44.7147 61.5541 46.1822C60.3242 45.9862 59.1074 45.7154 57.9106 45.3712C57.8139 46.1822 57.7463 47.0028 57.7173 47.8041C57.466 54.292 60.9646 60.3551 68.0969 59.9979C75.5289 59.6407 83.4151 53.8769 90.0449 47.2152L87.8124 51.1639L89.0012 53.008C91.4559 56.2423 94.5002 58.4918 98.0374 58.318C99.6224 58.2407 101.12 57.1208 102.473 55.4216C100.956 63.628 99.777 71.2069 99.8833 74.8949C100.019 78.0906 106.494 78.6506 107.248 77.7334C106.716 74.7211 109.045 62.286 110.427 55.103C111.264 56.0628 112.307 56.8216 113.479 57.3231C114.65 57.8245 115.919 58.0557 117.192 57.9994C120.575 57.8256 123.213 55.605 125.156 52.8438C124.069 52.8087 122.984 52.7087 121.909 52.5445C126.308 52.0437 130.553 50.6226 134.366 48.3738V48.6537C135.149 53.8093 137.942 56.7057 142.04 56.5126C145.567 56.3388 148.457 53.8769 150.738 50.7198C150.698 50.0758 150.717 49.4294 150.796 48.7889C150.863 48.2579 150.999 47.5531 151.182 46.7132C151.182 47.1862 151.182 47.6014 151.182 47.92C151.212 48.8077 151.417 49.6807 151.785 50.4893C152.153 51.2978 152.677 52.026 153.327 52.6321C153.977 53.2383 154.74 53.7105 155.572 54.0218C156.405 54.3331 157.291 54.4775 158.179 54.4465C160.277 54.35 162.219 52.5156 163.901 50.1309C163.901 49.5613 163.901 48.9917 163.901 48.4124C163.901 47.8331 163.988 47.109 164.065 46.4815C164.79 51.5018 167.641 55.5278 173.488 55.2382C178.417 54.9968 182.283 51.8784 185.153 48.1807C185.203 46.9585 185.345 45.7418 185.578 44.5409C185.578 44.9078 185.578 45.265 185.578 45.6125C186.09 51.5791 190.265 53.9348 193 53.7996C196.779 53.6162 199.089 49.3489 200.877 44.0582C200.861 44.2475 200.884 44.4381 200.945 44.6181C201.206 48.6055 203.844 51.5887 208.164 51.3763C210.329 51.2701 212.32 49.4454 214.021 47.0028C213.987 46.3918 213.987 45.7794 214.021 45.1684C214.021 44.7243 214.021 44.2899 214.098 43.8458C214.968 48.9337 218.36 53.0369 224.284 52.7473C227.072 52.5561 229.733 51.5072 231.9 49.7447C234.142 48.0165 235.766 45.6125 237.921 43.8168C239.941 42.1659 242.685 40.1577 245.324 40.6694C250.253 41.5866 250.659 33.2836 243.43 34.7222ZM227.561 25.8399C227.664 25.7231 227.797 25.6362 227.945 25.5884C228.094 25.5406 228.253 25.5336 228.405 25.5681C228.557 25.6027 228.697 25.6775 228.811 25.7848C228.924 25.8921 229.006 26.0279 229.049 26.1779C230.015 29.779 227.116 38.7867 221.791 38.053C222.728 33.0905 225.27 28.0508 227.561 25.8399ZM150.342 10.5278C150.854 14.1 146.176 30.9472 141.315 38.9412C143.026 26.9406 148.409 10.6436 150.342 10.5278ZM71.5182 33.0423C71.6166 32.9426 71.7388 32.8695 71.8732 32.8297C72.0076 32.7898 72.1499 32.7846 72.2868 32.8145C72.4238 32.8444 72.5509 32.9083 72.6565 33.0005C72.762 33.0926 72.8425 33.21 72.8905 33.3416C73.8956 36.8558 70.9963 46.076 65.6615 45.3326C66.6279 40.3122 69.1794 35.2146 71.5182 33.0423ZM122.489 38.9219C121.915 41.7803 121.077 44.5792 119.985 47.2828C119.967 47.3391 119.944 47.394 119.918 47.4469C119.077 49.513 117.666 53.4714 115.086 53.5969C113.549 53.6741 112.244 52.139 111.858 49.2813V49.1558L112.669 47.3986L114.419 43.1603C117.212 36.8655 120.488 30.2328 122.257 30.1459C124.431 30.0397 122.691 37.8889 122.489 38.9219ZM194.083 48.8468C190.7 49.011 195.533 25.753 200.916 25.4924C202.201 25.4248 202.955 26.8247 203.332 29.7694C201.37 35.4559 196.576 48.7213 194.083 48.8468Z" fill="#A505F0"/>
<path d="M225.56 15.8368C225.821 15.1803 229.754 8.35447 231.04 8.29654C232.325 8.23861 233.127 15.1416 232.973 16.194C233.611 16.3195 238.617 15.5954 238.926 13.5873C239.129 12.3804 237.689 7.64968 236.027 5.49671C235.542 4.88733 234.912 4.40961 234.194 4.10758C233.476 3.80555 232.694 3.68895 231.919 3.76853C228.14 3.95197 223.163 13.1431 223.125 14.2727C223.105 14.6782 224.594 15.885 225.56 15.8368Z" fill="#A505F0"/>
<path d="M208.56 61.2326H208.193C198.461 60.8947 166.761 62.2753 152.497 63.067C137.884 63.878 122.198 65.5192 118.236 66.2433C115.723 66.7068 115.743 67.9908 115.81 68.377C115.984 69.3425 117.279 70.3079 118.913 70.3079C119.236 70.32 119.559 70.3006 119.879 70.25C144.755 66.1951 195.069 66.9964 207.826 68.5798C208.266 68.639 208.714 68.5938 209.134 68.4479C209.554 68.302 209.933 68.0594 210.242 67.7398C211.344 66.6199 213.402 64.5152 212.755 62.9125C212.339 61.8891 210.967 61.3292 208.56 61.2326Z" fill="#A505F0"/>
</g>
</svg>
